HIERARCHY
ROOT Hips
{
	OFFSET 0.00000 0.00000 0.00000
	CHANNELS 6 Xposition Yposition Zposition Zrotation Yrotation Xrotation 
	JOINT LHipJoint
	{
		OFFSET 0 0 0
		CHANNELS 3 Zrotation Yrotation Xrotation
		JOINT LeftUpLeg
		{
			OFFSET 3.13874 -1.57224 1.49786
			CHANNELS 3 Zrotation Yrotation Xrotation
			JOINT LeftLeg
			{
				OFFSET 2.10955 -5.79594 0.00000
				CHANNELS 3 Zrotation Yrotation Xrotation
				JOINT LeftFoot
				{
					OFFSET 2.41843 -6.64458 0.00000
					CHANNELS 3 Zrotation Yrotation Xrotation
					JOINT LeftToeBase
					{
						OFFSET 0.04713 -0.12948 1.66229
						CHANNELS 3 Zrotation Yrotation Xrotation
						End Site
						{
							OFFSET 0.00000 -0.00000 0.85167
						}
					}
				}
			}
		}
	}
	JOINT RHipJoint
	{
		OFFSET 0 0 0
		CHANNELS 3 Zrotation Yrotation Xrotation
		JOINT RightUpLeg
		{
			OFFSET -3.13988 -1.57224 1.49786
			CHANNELS 3 Zrotation Yrotation Xrotation
			JOINT RightLeg
			{
				OFFSET -2.15006 -5.90725 0.00000
				CHANNELS 3 Zrotation Yrotation Xrotation
				JOINT RightFoot
				{
					OFFSET -2.34496 -6.44273 0.00000
					CHANNELS 3 Zrotation Yrotation Xrotation
					JOINT RightToeBase
					{
						OFFSET -0.08699 -0.23900 1.55223
						CHANNELS 3 Zrotation Yrotation Xrotation
						End Site
						{
							OFFSET -0.00000 -0.00000 0.80281
						}
					}
				}
			}
		}
	}
	JOINT LowerBack
	{
		OFFSET 0 0 0
		CHANNELS 3 Zrotation Yrotation Xrotation
		JOINT Spine
		{
			OFFSET 0.01292 1.96517 -0.16495
			CHANNELS 3 Zrotation Yrotation Xrotation
			JOINT Spine1
			{
				OFFSET 0.02122 1.88666 0.19706
				CHANNELS 3 Zrotation Yrotation Xrotation
				JOINT Neck
				{
					OFFSET 0 0 0
					CHANNELS 3 Zrotation Yrotation Xrotation
					JOINT Neck1
					{
						OFFSET -0.01683 1.81591 0.07903
						CHANNELS 3 Zrotation Yrotation Xrotation
						JOINT Head
						{
							OFFSET 0.00815 1.74013 -0.47700
							CHANNELS 3 Zrotation Yrotation Xrotation
							End Site
							{
								OFFSET -0.00204 1.83225 -0.16933
							}
						}
					}
				}
				JOINT LeftShoulder
				{
					OFFSET 0 0 0
					CHANNELS 3 Zrotation Yrotation Xrotation
					JOINT LeftArm
					{
						OFFSET 3.38482 1.41533 0.19802
						CHANNELS 3 Zrotation Yrotation Xrotation
						JOINT LeftForeArm
						{
							OFFSET 4.32712 -0.00000 0.00000
							CHANNELS 3 Zrotation Yrotation Xrotation
							JOINT LeftHand
							{
								OFFSET 3.28587 -0.00000 -0.00000
								CHANNELS 3 Zrotation Yrotation Xrotation
								JOINT LeftFingerBase
								{
									OFFSET 0 0 0
									CHANNELS 3 Zrotation Yrotation Xrotation
									JOINT LeftHandIndex1
									{
										OFFSET 0.43316 -0.00000 -0.00000
										CHANNELS 3 Zrotation Yrotation Xrotation
										End Site
										{
											OFFSET 0.34922 -0.00000 -0.00000
										}
									}
								}
								JOINT LThumb
								{
									OFFSET 0 0 0
									CHANNELS 3 Zrotation Yrotation Xrotation
									End Site
									{
										OFFSET 0.35456 -0.00000 0.35456
									}
								}
							}
						}
					}
				}
				JOINT RightShoulder
				{
					OFFSET 0 0 0
					CHANNELS 3 Zrotation Yrotation Xrotation
					JOINT RightArm
					{
						OFFSET -3.09725 1.62858 -0.14144
						CHANNELS 3 Zrotation Yrotation Xrotation
						JOINT RightForeArm
						{
							OFFSET -4.29104 -0.00000 0.00000
							CHANNELS 3 Zrotation Yrotation Xrotation
							JOINT RightHand
							{
								OFFSET -3.22720 -0.00000 -0.00000
								CHANNELS 3 Zrotation Yrotation Xrotation
								JOINT RightFingerBase
								{
									OFFSET 0 0 0
									CHANNELS 3 Zrotation Yrotation Xrotation
									JOINT RightHandIndex1
									{
										OFFSET -0.54362 -0.00000 -0.00000
										CHANNELS 3 Zrotation Yrotation Xrotation
										End Site
										{
											OFFSET -0.43828 -0.00000 -0.00000
										}
									}
								}
								JOINT RThumb
								{
									OFFSET 0 0 0
									CHANNELS 3 Zrotation Yrotation Xrotation
									End Site
									{
										OFFSET -0.44497 -0.00000 0.44497
									}
								}
							}
						}
					}
				}
			}
		}
	}
}
MOTION
Frames: 10
Frame Time: 0.0238095
0.00 0.00 0.00 -180.2990 36.8928 -169.4350 0.0000 0.0000 0.0000 -19.0663 -24.2037 5.3796 0.4525 4.3158 11.9667 0.8045 6.6928 -20.6592 12.7023 -18.6720 -68.1984 0.0000 0.0000 0.0000 19.4544 20.5077 -10.9736 -0.6866 -5.2977 14.7596 0.4207 11.5250 2.4795 -0.0017 -0.2694 0.7402 1.7711 2.3651 8.1045 -0.2440 3.8641 -8.9573 -2.0823 1.7806 -14.2976 18.0061 8.5949 -5.4131 -4.3224 12.3194 25.4211 -2.9726 7.5037 10.4631 -0.0000 0.0000 0.0000 -80.2204 4.5415 39.7527 13.4386 -21.9264 -2.6148 -0.0000 -0.0000 11.3899 27.8660 31.4491 15.4216 -7.1250 0.0000 -0.0000 -4.8826 64.5922 -2.3181 -0.0000 0.0000 0.0000 71.2387 -13.3440 46.0856 -14.8282 23.9063 -3.1560 0.0000 -0.0000 -16.3221 -30.0354 -17.3830 9.8002 7.1250 -0.0000 -0.0000 -2.0852 -49.8491 0.2494
0.00 0.00 0.00 -197.9590 41.7479 -183.0150 0.0000 0.0000 0.0000 -41.8221 -10.8196 12.8806 0.1519 -2.5114 -6.9212 0.1009 10.5571 -16.4906 13.1252 -18.8269 -69.5139 0.0000 0.0000 0.0000 -1.3668 -5.6818 -29.6588 -3.2214 -11.0451 32.4321 -0.1288 12.9226 -10.6441 -0.2115 2.9606 -8.1692 -3.8627 1.7263 8.8935 -5.8769 1.6597 -9.4030 -4.9178 1.0280 -15.4771 19.2203 9.3608 -3.1963 -8.4437 15.0574 25.5633 -4.3380 8.6201 10.8698 0.0000 0.0000 0.0000 -76.9740 2.7291 65.6285 24.2575 -35.4353 -7.8553 -0.0000 -0.0000 1.2739 24.6749 27.0098 11.7852 -7.1250 0.0000 -0.0000 -6.3069 59.1599 -2.1873 0.0000 0.0000 0.0000 70.6714 -21.3610 21.2211 -12.3519 20.3303 -2.2230 0.0000 -0.0000 -13.8782 -33.3636 -18.1080 11.5663 7.1250 -0.0000 -0.0000 -5.4055 -51.2831 0.8387
0.00 0.00 0.00 -179.7530 -8.9332 -170.6030 0.0000 0.0000 0.0000 -16.3006 -34.7971 -0.5093 0.0596 1.5757 4.3345 -0.0963 -5.7923 0.1652 13.1622 -18.8400 -69.6287 0.0000 0.0000 0.0000 20.5850 6.6986 -6.1887 -1.8357 -8.5151 24.2898 -1.4905 4.4957 -22.0551 -3.0651 10.7997 -31.6074 1.4293 4.3748 9.1058 -4.5588 5.0705 -9.0305 -6.9331 1.6699 -14.5876 13.9737 8.5781 -9.0862 -2.1861 8.0869 30.4956 -2.2289 4.2457 12.3764 -0.0000 0.0000 0.0000 -74.8440 9.2768 50.0986 16.7280 -26.4978 -3.9652 -0.0000 -0.0000 1.4624 20.6582 29.6944 10.5794 -7.1250 0.0000 -0.0000 -12.2987 60.9211 -4.8130 -0.0000 0.0000 0.0000 79.5683 -11.4964 40.7454 -17.4323 27.4242 -4.2846 0.0000 -0.0000 -13.1782 -25.7351 -14.4900 6.8771 7.1250 -0.0000 -0.0000 1.6759 -45.9805 -0.0406
0.00 0.00 0.00 -175.2090 -24.0155 -170.7310 0.0000 0.0000 0.0000 -4.8811 -31.9306 -19.8745 0.7619 5.5745 15.5546 -0.1091 -5.9188 1.1780 13.4728 -18.9463 -70.5876 0.0000 0.0000 0.0000 31.4178 7.5643 3.5611 -0.1908 -2.8131 7.7589 -1.3931 6.3854 -21.1310 -0.9421 6.1820 -17.3134 2.7276 2.9559 7.8265 -1.8838 3.8113 -8.8418 -4.3090 1.2372 -13.7934 11.3535 6.8485 -11.7912 -2.3885 6.0674 31.8350 -2.1226 3.0862 13.1407 0.0000 -0.0000 0.0000 -77.0146 8.7735 64.9601 23.1230 -34.2230 -7.2073 -0.0000 -0.0000 0.6368 28.4624 29.1820 14.8060 -7.1250 0.0000 -0.0000 -2.9131 62.3825 -1.2313 0.0000 -0.0000 0.0000 78.6251 -11.2783 51.6229 -16.9183 26.7499 -4.0505 0.0000 -0.0000 -8.5818 -18.8483 -14.4984 4.8848 7.1250 -0.0000 -0.0000 8.0669 -45.1080 -0.0217
0.00 0.00 0.00 -169.0220 -38.0837 -176.3180 0.0000 0.0000 0.0000 -7.4053 -14.5750 -34.2670 0.8012 5.7130 15.9539 -0.6345 18.1306 -19.1166 9.2528 -16.9677 -56.9604 0.0000 0.0000 0.0000 43.9137 2.8703 8.3261 -0.3233 3.6548 -10.1074 -1.3703 -1.6767 -22.7801 -0.2021 -2.8950 7.9865 6.5557 3.3252 7.9720 0.8807 5.1704 -10.3769 -3.6700 1.4951 -15.5980 9.0684 6.9803 -13.3284 2.1290 3.8110 41.1258 -0.2457 2.2150 17.7260 0.0000 0.0000 0.0000 -79.9813 14.5154 26.0258 9.3290 -15.6833 -1.2876 -0.0000 -0.0000 19.0478 31.9226 33.0540 18.7677 -7.1250 0.0000 -0.0000 -0.4580 67.4567 -0.2474 0.0000 0.0000 0.0000 79.1882 -6.0774 43.3695 -12.8734 21.1015 -2.4075 0.0000 -0.0000 -22.3933 -27.8578 -19.1668 9.8443 7.1250 -0.0000 -0.0000 0.4090 -51.4416 -0.0649
0.00 0.00 0.00 -173.2290 -17.2245 -164.9370 0.0000 0.0000 0.0000 -17.7285 -36.4111 -14.7863 0.0074 -0.5538 -1.5218 11.5936 14.7336 -69.0487 5.8051 -14.2367 -44.1942 0.0000 0.0000 0.0000 39.1078 7.1708 12.3026 -0.0005 0.1380 -0.3790 -0.2131 0.8067 -8.4711 -0.2703 -3.3444 9.2390 4.6268 4.7340 6.6042 -1.1115 6.3453 -10.6873 -4.9246 2.0944 -14.8947 6.1011 3.1571 -14.6202 -2.1168 1.6861 32.7073 -1.8018 0.5295 13.5953 0.0000 -0.0000 0.0000 -75.0911 12.7108 10.6039 11.4344 -18.9511 -1.9146 -0.0000 -0.0000 19.2434 31.3302 31.4852 17.6369 -7.1250 0.0000 -0.0000 -0.4020 65.6196 -0.2002 0.0000 -0.0000 0.0000 73.9105 -0.3853 65.2941 -17.3491 27.3157 -4.2463 0.0000 -0.0000 -12.4803 -24.5068 -14.8206 6.6511 7.1250 -0.0000 -0.0000 2.8839 -46.1736 -0.0836
0.00 0.00 0.00 -174.4180 -15.2838 -165.7070 0.0000 0.0000 0.0000 -23.7198 -22.7146 -16.8704 0.0443 1.3578 3.7339 7.1644 14.5974 -56.0718 6.3189 -14.7304 -46.2487 0.0000 0.0000 0.0000 35.4519 4.3907 10.0400 -0.1723 -2.6741 7.3727 0.0343 -4.3954 1.5117 -0.6828 -5.2832 14.7182 3.9431 4.4198 6.6943 -2.3225 5.6486 -10.7067 -5.7918 1.7394 -14.9886 3.4564 -1.3447 -15.0534 -1.4811 -4.3883 31.8956 -2.0099 -2.3849 13.0868 -0.0000 0.0000 0.0000 -74.0089 18.0014 11.8205 11.5366 -19.1061 -1.9480 -0.0000 -0.0000 15.7662 32.0480 32.5993 18.6383 -7.1250 0.0000 -0.0000 -0.0202 67.0140 -0.0107 -0.0000 0.0000 0.0000 77.0644 0.9208 58.8774 -20.5112 31.2533 -5.7942 0.0000 -0.0000 -14.7106 -28.6516 -13.5749 7.3080 7.1250 -0.0000 -0.0000 -1.1815 -45.3608 0.0105
0.00 0.00 0.00 -176.7670 -16.8462 -168.8720 0.0000 0.0000 0.0000 -31.7818 -18.4342 -6.4920 0.0187 0.8827 2.4262 6.4859 13.9474 -53.5396 6.4501 -14.8507 -46.7623 0.0000 0.0000 0.0000 25.3270 -6.4805 0.1155 -2.1371 -9.1461 26.2533 -0.0294 -19.7680 14.1576 -0.9384 -6.1703 17.2794 4.0849 4.5322 6.8971 -3.9814 5.5711 -10.8310 -7.7611 1.5276 -15.1068 0.4727 -5.2600 -14.5641 1.5817 -10.7687 32.8766 -1.3471 -5.2257 13.6341 -0.0000 -0.0000 0.0000 -74.8785 14.9015 31.6089 14.1200 -22.9060 -2.8746 -0.0000 -0.0000 12.0318 25.4878 32.1529 14.2355 -7.1250 0.0000 -0.0000 -8.3109 64.6492 -3.9652 -0.0000 -0.0000 0.0000 78.4177 -4.1567 54.3481 -18.5172 28.8144 -4.7959 0.0000 -0.0000 -18.5384 -27.9756 -16.5826 8.6200 7.1250 -0.0000 -0.0000 -0.1571 -48.6129 0.0140
0.00 0.00 0.00 -180.7300 -22.4922 -169.5410 0.0000 0.0000 0.0000 -44.8750 -31.4257 15.7945 0.1472 -2.4726 -6.8138 10.6420 14.0399 -66.2560 4.9365 -13.3120 -40.5478 0.0000 0.0000 0.0000 19.1289 -7.8605 -18.1364 -6.9826 -15.3172 48.8085 0.1532 -7.0620 -4.0726 -0.5690 4.8310 -13.4272 2.0055 3.7851 7.4565 -5.1080 4.0286 -10.7761 -7.6646 0.8903 -15.7228 -2.5532 -7.8634 -13.9189 3.1915 -13.6701 30.3018 -0.5744 -6.6006 12.8186 0.0000 0.0000 0.0000 -74.0116 8.8333 49.0463 24.5323 -35.7221 -8.0152 -0.0000 -0.0000 4.1014 30.0436 28.3990 15.3803 -7.1250 0.0000 -0.0000 -0.6323 61.9673 -0.2610 0.0000 0.0000 0.0000 77.9128 -9.0723 53.2199 -14.1830 22.9958 -2.8992 0.0000 -0.0000 -7.7877 -24.4360 -17.2618 7.6789 7.1250 -0.0000 -0.0000 3.4175 -48.7948 -0.3202
0.00 0.00 0.00 -181.2620 -31.3424 -168.8900 0.0000 0.0000 0.0000 -48.3976 -32.6408 22.7604 0.3104 -3.5816 -9.9025 9.4187 15.4661 -63.2448 7.0010 -15.3328 -48.8782 0.0000 0.0000 0.0000 18.7983 3.3472 -25.5592 -6.2825 -14.6967 46.1053 -1.1250 -8.9828 -25.1615 -1.3512 7.3588 -20.7827 1.0725 2.2738 8.0647 -4.5349 1.9567 -10.6014 -6.1087 0.0944 -16.2564 -4.1390 -9.8288 -14.2732 3.7054 -15.2843 26.7153 -0.2743 -7.3051 11.7006 -0.0000 -0.0000 0.0000 -74.6251 3.7825 53.5957 29.4082 -40.3807 -11.0242 -0.0000 -0.0000 3.4693 31.6836 27.0488 15.6784 -7.1250 0.0000 -0.0000 1.8631 60.9351 0.7235 -0.0000 -0.0000 0.0000 77.9401 -14.7437 46.1224 -14.9446 24.0688 -3.2033 0.0000 -0.0000 -14.6665 -25.1175 -17.5698 8.0549 7.1250 -0.0000 -0.0000 2.8181 -49.2342 -0.2945
